<svg width="32" height="32" viewBox="0 0 32 32" fill="none" xmlns="http://www.w3.org/2000/svg">
<path d="M21.586 2.6665H10.4127C5.55935 2.6665 2.66602 5.55984 2.66602 10.4132V21.5732C2.66602 26.4398 5.55935 29.3332 10.4127 29.3332H21.5727C26.426 29.3332 29.3193 26.4398 29.3193 21.5865V10.4132C29.3327 5.55984 26.4394 2.6665 21.586 2.6665ZM18.386 19.9998C18.7727 20.3865 18.7727 21.0265 18.386 21.4132C18.186 21.6132 17.9327 21.7065 17.6793 21.7065C17.426 21.7065 17.1727 21.6132 16.9727 21.4132L12.266 16.7065C11.8793 16.3198 11.8793 15.6798 12.266 15.2932L16.9727 10.5865C17.3593 10.1998 17.9993 10.1998 18.386 10.5865C18.7727 10.9732 18.7727 11.6132 18.386 11.9998L14.386 15.9998L18.386 19.9998Z" fill="#253B65"/>
</svg>
