<svg width="50" height="50" viewBox="0 0 50 50" fill="none" xmlns="http://www.w3.org/2000/svg">
<path opacity="0.4" d="M14.0824 45.8332H35.9157C41.6657 45.8332 43.9574 42.3123 44.2282 38.0207L45.3115 20.8123C45.6032 16.3123 42.0199 12.4998 37.499 12.4998C36.2282 12.4998 35.0615 11.7707 34.4782 10.6457L32.9782 7.62484C32.0199 5.729 29.5199 4.1665 27.3949 4.1665H22.624C20.4782 4.1665 17.9782 5.729 17.0199 7.62484L15.5199 10.6457C14.9365 11.7707 13.7699 12.4998 12.499 12.4998C7.97821 12.4998 4.39488 16.3123 4.68655 20.8123L5.76988 38.0207C6.01988 42.3123 8.33238 45.8332 14.0824 45.8332Z" fill="white"/>
<path d="M28.125 18.229H21.875C21.0208 18.229 20.3125 17.5207 20.3125 16.6665C20.3125 15.8123 21.0208 15.104 21.875 15.104H28.125C28.9792 15.104 29.6875 15.8123 29.6875 16.6665C29.6875 17.5207 28.9792 18.229 28.125 18.229Z" fill="white"/>
<path d="M25.0007 37.7708C28.8897 37.7708 32.0423 34.6182 32.0423 30.7292C32.0423 26.8402 28.8897 23.6875 25.0007 23.6875C21.1116 23.6875 17.959 26.8402 17.959 30.7292C17.959 34.6182 21.1116 37.7708 25.0007 37.7708Z" fill="white"/>
</svg>
