<svg width="40" height="40" viewBox="0 0 40 40" fill="none" xmlns="http://www.w3.org/2000/svg">
<g clip-path="url(#clip0_62_4052)">
<path d="M34.3666 14.0832C32.6166 6.38317 25.8999 2.9165 19.9999 2.9165C19.9999 2.9165 19.9999 2.9165 19.9832 2.9165C14.0999 2.9165 7.36658 6.3665 5.61658 14.0665C3.66658 22.6665 8.93325 29.9498 13.6999 34.5332C15.4666 36.2332 17.7332 37.0832 19.9999 37.0832C22.2666 37.0832 24.5332 36.2332 26.2832 34.5332C31.0499 29.9498 36.3166 22.6832 34.3666 14.0832ZM19.9999 22.4332C17.0999 22.4332 14.7499 20.0832 14.7499 17.1832C14.7499 14.2832 17.0999 11.9332 19.9999 11.9332C22.8999 11.9332 25.2499 14.2832 25.2499 17.1832C25.2499 20.0832 22.8999 22.4332 19.9999 22.4332Z" fill="#253B65"/>
</g>
<defs>
<clipPath id="clip0_62_4052">
<rect width="40" height="40" fill="white"/>
</clipPath>
</defs>
</svg>
