<svg width="30" height="30" viewBox="0 0 30 30" fill="none" xmlns="http://www.w3.org/2000/svg">
<path d="M25.0508 8.52511L17.8508 3.48761C15.8883 2.11261 12.8758 2.18761 10.9883 3.65011L4.72578 8.5376C3.47578 9.5126 2.48828 11.5126 2.48828 13.0876V21.7126C2.48828 24.9001 5.07578 27.5001 8.26328 27.5001H21.7383C24.9258 27.5001 27.5133 24.9126 27.5133 21.7251V13.2501C27.5133 11.5626 26.4258 9.48761 25.0508 8.52511ZM15.9383 22.5001C15.9383 23.0126 15.5133 23.4376 15.0008 23.4376C14.4883 23.4376 14.0633 23.0126 14.0633 22.5001V18.7501C14.0633 18.2376 14.4883 17.8126 15.0008 17.8126C15.5133 17.8126 15.9383 18.2376 15.9383 18.7501V22.5001Z" fill="white"/>
</svg>
