<svg width="49" height="49" viewBox="0 0 49 49" fill="none" xmlns="http://www.w3.org/2000/svg">
<path d="M42.0993 17.7625C39.9759 8.30962 31.7276 4.08337 24.5001 4.08337C24.5001 4.08337 24.5001 4.08337 24.4797 4.08337C17.2726 4.08337 9.04468 8.30962 6.90093 17.7421C4.49177 28.2771 10.9434 37.1992 16.7826 42.8342C18.9468 44.9167 21.7234 45.958 24.5001 45.958C27.2768 45.958 30.0534 44.9167 32.1972 42.8342C38.0364 37.1992 44.488 28.2975 42.0993 17.7625ZM30.1147 23.9896H26.0314V28.073C26.0314 28.91 25.3372 29.6042 24.5001 29.6042C23.663 29.6042 22.9689 28.91 22.9689 28.073V23.9896H18.8855C18.0484 23.9896 17.3543 23.2955 17.3543 22.4584C17.3543 21.6213 18.0484 20.9271 18.8855 20.9271H22.9689V16.8438C22.9689 16.0067 23.663 15.3125 24.5001 15.3125C25.3372 15.3125 26.0314 16.0067 26.0314 16.8438V20.9271H30.1147C30.9518 20.9271 31.6459 21.6213 31.6459 22.4584C31.6459 23.2955 30.9518 23.9896 30.1147 23.9896Z" fill="white"/>
</svg>
