<svg width="40" height="40" viewBox="0 0 40 40" fill="none" xmlns="http://www.w3.org/2000/svg">
<g clip-path="url(#clip0_395_6805)">
<path d="M28 3.33301H23.6667C18.3333 3.33301 15 6.66634 15 11.9997V18.7497H25.4167C26.1 18.7497 26.6667 19.3163 26.6667 19.9997C26.6667 20.683 26.1 21.2497 25.4167 21.2497H15V27.9997C15 33.333 18.3333 36.6663 23.6667 36.6663H27.9833C33.3167 36.6663 36.65 33.333 36.65 27.9997V11.9997C36.6667 6.66634 33.3333 3.33301 28 3.33301Z" fill="#B71515"/>
<path d="M7.5999 18.7501L11.0499 15.3001C11.2999 15.0501 11.4166 14.7334 11.4166 14.4167C11.4166 14.1001 11.2999 13.7667 11.0499 13.5334C10.5666 13.0501 9.76657 13.0501 9.28324 13.5334L3.6999 19.1167C3.21657 19.6001 3.21657 20.4001 3.6999 20.8834L9.28324 26.4667C9.76657 26.9501 10.5666 26.9501 11.0499 26.4667C11.5332 25.9834 11.5332 25.1834 11.0499 24.7001L7.5999 21.2501H14.9999V18.7501H7.5999Z" fill="#B71515"/>
</g>
<defs>
<clipPath id="clip0_395_6805">
<rect width="40" height="40" fill="white"/>
</clipPath>
</defs>
</svg>
