<svg width="40" height="40" viewBox="0 0 40 40" fill="none" xmlns="http://www.w3.org/2000/svg">
<path d="M32.5165 9.75016L22.6165 4.0335C20.9998 3.10016 18.9998 3.10016 17.3665 4.0335L7.48312 9.75016C5.86645 10.6835 4.86646 12.4168 4.86646 14.3002V25.7002C4.86646 27.5668 5.86645 29.3002 7.48312 30.2502L17.3831 35.9668C18.9998 36.9002 20.9998 36.9002 22.6331 35.9668L32.5331 30.2502C34.1498 29.3168 35.1498 27.5835 35.1498 25.7002V14.3002C35.1331 12.4168 34.1331 10.7002 32.5165 9.75016ZM19.9998 12.2335C22.1498 12.2335 23.8831 13.9668 23.8831 16.1168C23.8831 18.2668 22.1498 20.0002 19.9998 20.0002C17.8498 20.0002 16.1165 18.2668 16.1165 16.1168C16.1165 13.9835 17.8498 12.2335 19.9998 12.2335ZM24.4665 27.7668H15.5331C14.1831 27.7668 13.3998 26.2668 14.1498 25.1502C15.2831 23.4668 17.4831 22.3335 19.9998 22.3335C22.5165 22.3335 24.7165 23.4668 25.8498 25.1502C26.5998 26.2502 25.7998 27.7668 24.4665 27.7668Z" fill="#253B65"/>
</svg>
