<svg width="30" height="30" viewBox="0 0 30 30" fill="none" xmlns="http://www.w3.org/2000/svg">
<path d="M9.53828 4.4626C9.76251 4.34029 10.0008 4.52845 10.0008 4.78387V21.8229C10.0008 22.0462 9.84963 22.2364 9.64784 22.3318C9.61034 22.3496 9.57389 22.3682 9.53828 22.3876L6.60078 24.0626C4.55078 25.2376 2.86328 24.2626 2.86328 21.8876V9.7251C2.86328 8.9376 3.42578 7.9626 4.12578 7.5626L9.53828 4.4626Z" fill="white"/>
<path d="M18.4719 7.66208C18.6422 7.74643 18.75 7.92007 18.75 8.11014V24.8281C18.75 25.1966 18.365 25.4385 18.033 25.2786L12.4705 22.5986C12.2975 22.5153 12.1875 22.3402 12.1875 22.1482V5.35538C12.1875 4.98452 12.5771 4.74273 12.9094 4.90732L18.4719 7.66208Z" fill="white"/>
<path d="M27.5 8.11258V20.2751C27.5 21.0626 26.9375 22.0376 26.2375 22.4376L21.6861 25.046C21.3528 25.2371 20.9375 24.9964 20.9375 24.6122V7.8404C20.9375 7.66089 21.0337 7.49515 21.1896 7.40616L23.7625 5.93758C25.8125 4.76258 27.5 5.73758 27.5 8.11258Z" fill="white"/>
</svg>
