<svg width="54" height="54" viewBox="0 0 54 54" fill="none" xmlns="http://www.w3.org/2000/svg">
<g clip-path="url(#clip0_37_4378)">
<path d="M36.4275 4.5H17.5725C9.3825 4.5 4.5 9.3825 4.5 17.5725V36.405C4.5 44.6175 9.3825 49.5 17.5725 49.5H36.405C44.595 49.5 49.4775 44.6175 49.4775 36.4275V17.5725C49.5 9.3825 44.6175 4.5 36.4275 4.5ZM26.1225 33.39C26.1225 35.8425 24.21 37.755 21.7575 37.755H18.4275C16.02 37.755 14.0625 35.7975 14.0625 33.39V27.3825C14.0625 20.4525 15.57 18.9 19.5975 16.515C19.8675 16.3575 20.16 16.29 20.4525 16.29C21.0375 16.29 21.6 16.5825 21.915 17.1225C22.3875 17.9325 22.1175 18.9675 21.33 19.44C18.6075 21.015 17.6625 21.6 17.4825 25.6725H21.78C24.2325 25.6725 26.145 27.585 26.145 30.0375V33.39H26.1225ZM39.9375 33.39C39.9375 35.8425 38.025 37.755 35.5725 37.755H32.22C29.8125 37.755 27.855 35.7975 27.855 33.39V27.3825C27.855 20.4525 29.3625 18.9 33.39 16.515C33.66 16.3575 33.9525 16.29 34.245 16.29C34.83 16.29 35.3925 16.5825 35.7075 17.1225C36.18 17.9325 35.91 18.9675 35.1225 19.44C32.4 21.06 31.455 21.645 31.275 25.7175H35.5725C38.025 25.7175 39.9375 27.63 39.9375 30.0825V33.39Z" fill="white"/>
</g>
<defs>
<clipPath id="clip0_37_4378">
<rect width="54" height="54" fill="white"/>
</clipPath>
</defs>
</svg>
