<svg width="54" height="54" viewBox="0 0 54 54" fill="none" xmlns="http://www.w3.org/2000/svg">
<g clip-path="url(#clip0_37_4376)">
<path d="M17.5725 49.5L36.4275 49.5C44.6175 49.5 49.5 44.6175 49.5 36.4275L49.5 17.595C49.5 9.3825 44.6175 4.5 36.4275 4.5L17.595 4.5C9.405 4.5 4.5225 9.3825 4.5225 17.5725L4.5225 36.4275C4.5 44.6175 9.3825 49.5 17.5725 49.5ZM27.8775 20.61C27.8775 18.1575 29.79 16.245 32.2425 16.245H35.5725C37.98 16.245 39.9375 18.2025 39.9375 20.61V26.6175C39.9375 33.5475 38.43 35.1 34.4025 37.485C34.1325 37.6425 33.84 37.71 33.5475 37.71C32.9625 37.71 32.4 37.4175 32.085 36.8775C31.6125 36.0675 31.8825 35.0325 32.67 34.56C35.3925 32.985 36.3375 32.4 36.5175 28.3275L32.22 28.3275C29.7675 28.3275 27.855 26.415 27.855 23.9625V20.61H27.8775ZM14.0625 20.61C14.0625 18.1575 15.975 16.245 18.4275 16.245L21.78 16.245C24.1875 16.245 26.145 18.2025 26.145 20.61V26.6175C26.145 33.5475 24.6375 35.1 20.61 37.485C20.34 37.6425 20.0475 37.71 19.755 37.71C19.17 37.71 18.6075 37.4175 18.2925 36.8775C17.82 36.0675 18.09 35.0325 18.8775 34.56C21.6 32.94 22.545 32.355 22.725 28.2825H18.4275C15.975 28.2825 14.0625 26.37 14.0625 23.9175V20.61Z" fill="white"/>
</g>
<defs>
<clipPath id="clip0_37_4376">
<rect width="54" height="54" fill="white" transform="matrix(-1 0 0 -1 54 54)"/>
</clipPath>
</defs>
</svg>
