<svg width="40" height="40" viewBox="0 0 40 40" fill="none" xmlns="http://www.w3.org/2000/svg">
<g clip-path="url(#clip0_115_2991)">
<path d="M31.2167 24.4505L24.3 31.3671C24.0333 31.6338 23.7833 32.1505 23.7167 32.5171L23.3333 35.1671C23.2 36.1171 23.8667 36.8005 24.8167 36.6505L27.4667 36.2671C27.8333 36.2171 28.35 35.9505 28.6167 35.6838L35.5333 28.7671C36.7167 27.5838 37.2833 26.1838 35.5333 24.4338C33.8 22.7005 32.4167 23.2505 31.2167 24.4505Z" fill="#253B65"/>
<path d="M30.2333 25.4336C30.8167 27.5336 32.4667 29.1669 34.5667 29.7669L30.2333 25.4336Z" fill="#253B65"/>
<path d="M3.38331 24.3838C3.38331 24.4338 3.34998 24.5005 3.34998 24.5505C4.88331 27.6171 7.38331 30.1338 10.45 31.6505C10.5 31.6505 10.5666 31.6171 10.6166 31.6171C10.05 29.6838 9.61664 27.7005 9.29998 25.7171C7.29998 25.3838 5.31664 24.9505 3.38331 24.3838Z" fill="#253B65"/>
<path d="M31.7833 10.7167C30.2167 7.4334 27.5667 4.7834 24.3 3.2334C24.9 5.21673 25.4 7.25007 25.7333 9.2834C27.7667 9.61673 29.8 10.1001 31.7833 10.7167Z" fill="#253B65"/>
<path d="M3.21667 10.7162C5.21667 10.1162 7.25001 9.61621 9.28334 9.28288C9.61668 7.29954 10.0333 5.33288 10.6 3.39954C10.55 3.39954 10.4833 3.36621 10.4333 3.36621C7.30001 4.91621 4.75001 7.53288 3.21667 10.7162Z" fill="#253B65"/>
<path d="M23.0333 8.93366C22.6333 6.76699 22.1333 4.60033 21.4167 2.50033C21.3833 2.38366 21.3833 2.28366 21.3667 2.15033C20.1333 1.85033 18.8333 1.66699 17.5 1.66699C16.15 1.66699 14.8667 1.85033 13.6167 2.16699C13.6 2.28366 13.6167 2.38366 13.5833 2.51699C12.8833 4.61699 12.3667 6.76699 11.9667 8.93366C15.65 8.53366 19.35 8.53366 23.0333 8.93366Z" fill="#253B65"/>
<path d="M8.93335 11.9668C6.75002 12.3668 4.61669 12.8835 2.50002 13.5835C2.38335 13.6168 2.28335 13.6168 2.16669 13.6335C1.85002 14.8668 1.66669 16.1668 1.66669 17.5001C1.66669 18.8501 1.85002 20.1335 2.16669 21.3835C2.28335 21.4001 2.38335 21.3835 2.51669 21.4168C4.61669 22.1168 6.76669 22.6335 8.95002 23.0335C8.53335 19.3501 8.53335 15.6501 8.93335 11.9668Z" fill="#253B65"/>
<path d="M32.8333 13.6335C32.7167 13.6335 32.6167 13.6168 32.4833 13.5835C30.3833 12.8835 28.2167 12.3668 26.05 11.9668C26.4667 15.6501 26.4667 19.3501 26.05 23.0168C28.2167 22.6168 30.3833 22.1168 32.4833 21.4001C32.6 21.3668 32.7 21.3835 32.8333 21.3668C33.1333 20.1168 33.3333 18.8335 33.3333 17.4835C33.3333 16.1668 33.15 14.8835 32.8333 13.6335Z" fill="#253B65"/>
<path d="M11.9667 26.0665C12.3667 28.2498 12.8667 30.3998 13.5833 32.4998C13.6167 32.6165 13.6 32.7165 13.6167 32.8498C14.8667 33.1498 16.15 33.3331 17.5 33.3331C18.8333 33.3331 20.1333 33.1498 21.3667 32.8331C21.3833 32.7165 21.3833 32.6165 21.4167 32.4831C22.1167 30.3831 22.6333 28.2331 23.0333 26.0498C21.2 26.2498 19.35 26.3998 17.5 26.3998C15.65 26.3998 13.8 26.2665 11.9667 26.0665Z" fill="#253B65"/>
<path d="M11.5833 11.583C11.0833 15.5163 11.0833 19.483 11.5833 23.433C15.5166 23.933 19.4833 23.933 23.4333 23.433C23.9333 19.4997 23.9333 15.533 23.4333 11.583C19.4833 11.083 15.5166 11.083 11.5833 11.583Z" fill="#253B65"/>
</g>
<defs>
<clipPath id="clip0_115_2991">
<rect width="40" height="40" fill="white"/>
</clipPath>
</defs>
</svg>
