<svg width="26" height="26" viewBox="0 0 26 26" fill="none" xmlns="http://www.w3.org/2000/svg">
<g clip-path="url(#clip0_395_6892)">
<path d="M20.5184 5.87124L14.9176 2.63207C13.8451 2.01457 12.1659 2.01457 11.0934 2.63207L5.43842 5.8929C3.19592 7.40957 3.06592 7.63707 3.06592 10.0529V15.9354C3.06592 18.3512 3.19592 18.5896 5.48175 20.1279L11.0826 23.3671C11.6243 23.6812 12.3176 23.8329 13.0001 23.8329C13.6826 23.8329 14.3759 23.6812 14.9068 23.3671L20.5618 20.1062C22.8043 18.5896 22.9343 18.3621 22.9343 15.9462V10.0529C22.9343 7.63707 22.8043 7.40957 20.5184 5.87124ZM13.0001 16.5204C11.0609 16.5204 9.47925 14.9387 9.47925 12.9996C9.47925 11.0604 11.0609 9.47874 13.0001 9.47874C14.9393 9.47874 16.5209 11.0604 16.5209 12.9996C16.5209 14.9387 14.9393 16.5204 13.0001 16.5204Z" fill="#253B65"/>
</g>
<defs>
<clipPath id="clip0_395_6892">
<rect width="26" height="26" fill="white"/>
</clipPath>
</defs>
</svg>
